<?xml version="1.0" encoding="UTF-8" standalone="no"?>
<!-- Created with Inkscape (http://www.inkscape.org/) -->

<svg
   version="1.1"
   id="svg2"
   xml:space="preserve"
   width="1200"
   height="1200"
   viewBox="0 0 1200 1200"
   sodipodi:docname="source file.ai"
   xmlns:inkscape="http://www.inkscape.org/namespaces/inkscape"
   xmlns:sodipodi="http://sodipodi.sourceforge.net/DTD/sodipodi-0.dtd"
   xmlns="http://www.w3.org/2000/svg"
   xmlns:svg="http://www.w3.org/2000/svg"><defs
     id="defs6"><clipPath
       clipPathUnits="userSpaceOnUse"
       id="clipPath16"><path
         d="M 0,900 H 900 V 0 H 0 Z"
         id="path14" /></clipPath></defs><sodipodi:namedview
     id="namedview4"
     pagecolor="#ffffff"
     bordercolor="#666666"
     borderopacity="1.0"
     inkscape:pageshadow="2"
     inkscape:pageopacity="0.0"
     inkscape:pagecheckerboard="0" /><g
     id="g8"
     inkscape:groupmode="layer"
     inkscape:label="source file"
     transform="matrix(1.3333333,0,0,-1.3333333,0,1200)"><g
       id="g10"><g
         id="g12"
         clip-path="url(#clipPath16)"><g
           id="g18"
           transform="translate(596.9209,515.2432)"><path
             d="m 0,0 c 8.979,-9.582 17.04,-21.053 23.931,-33.917 3.426,-1.871 6.924,-3.891 10.469,-6.037 24.254,-14.683 50.985,-35.291 70.677,-53.182 1.836,-1.67 1.97,-4.516 0.3,-6.352 -1.67,-1.836 -4.516,-1.97 -6.352,-0.3 -19.376,17.602 -45.587,37.826 -69.27,52.163 -3.437,2.08 -6.814,4.036 -10.098,5.838 -0.75,0.182 -1.451,0.556 -2.024,1.099 -13.871,7.43 -25.95,11.967 -33.842,11.497 -4.435,-0.265 -8.591,-4.11 -12.237,-10.075 -4.68,-7.657 -8.282,-18.523 -10.573,-30.156 -2.32,-11.77 -3.273,-24.209 -2.636,-34.867 0.714,-11.933 3.228,-21.318 7.815,-24.121 10.924,-6.675 37.197,-17.915 65.715,-27.819 12.909,-4.484 26.251,-8.683 38.81,-12.05 0.118,-0.027 0.234,-0.057 0.346,-0.093 8.729,-2.332 17.074,-4.261 24.619,-5.598 0.107,-0.016 0.213,-0.034 0.316,-0.056 1.051,-0.184 2.087,-0.359 3.105,-0.519 9.186,-1.45 17.164,-1.348 23.57,0.553 l 0.158,0.055 0.279,0.079 c 0.769,0.242 1.515,0.509 2.238,0.803 3.843,1.57 7.027,3.946 9.443,7.202 2.493,3.356 4.22,7.698 5.074,13.109 1.187,7.51 0.723,16.92 -1.643,28.421 -0.119,0.35 -0.195,0.712 -0.226,1.078 -2.471,11.564 -6.827,25.201 -13.325,41.109 -8.497,20.804 -21.156,38.927 -35.171,54.327 -0.329,0.268 -0.622,0.583 -0.864,0.936 C 56.781,7.711 18.33,28.358 5.754,34.566 1.429,23.499 -1.014,12.072 0,0"
             style="fill:#17bb62;fill-opacity:1;fill-rule:nonzero;stroke:none"
             id="path20" /></g><g
           id="g22"
           transform="translate(556.4791,437.326)"><path
             d="m 0,0 c 0,0 3.492,-32.749 78.938,-59.775 75.446,-27.026 104.724,-10.775 85.021,58.233 0.381,-0.888 0.756,-1.779 1.122,-2.676 6.498,-15.908 10.854,-29.546 13.325,-41.11 0.03,-0.365 0.107,-0.728 0.226,-1.078 2.365,-11.501 2.829,-20.911 1.643,-28.421 -0.854,-5.41 -2.582,-9.752 -5.074,-13.109 -2.416,-3.256 -5.6,-5.632 -9.444,-7.201 -0.722,-0.295 -1.468,-0.562 -2.237,-0.804 l -0.279,-0.079 -0.158,-0.055 c -6.406,-1.901 -14.385,-2.003 -23.57,-0.553 -1.018,0.16 -2.054,0.335 -3.105,0.519 -0.104,0.023 -0.21,0.041 -0.316,0.056 -7.546,1.337 -15.89,3.266 -24.619,5.599 -0.112,0.036 -0.228,0.065 -0.346,0.092 -12.559,3.367 -25.901,7.566 -38.81,12.05 -28.519,9.904 -54.792,21.144 -65.715,27.819 -4.587,2.803 -7.101,12.189 -7.815,24.122 C -1.698,-18.253 -1.262,-9.102 0,0"
             style="fill:#009c75;fill-opacity:1;fill-rule:evenodd;stroke:none"
             id="path24" /></g><g
           id="g26"
           transform="translate(457.2891,563.8873)"><path
             d="m 0,0 c -0.659,-0.893 -1.397,-1.87 -2.214,-2.954 -6.89,-9.129 -19.597,-25.968 -28.114,-48.635 1.168,1.04 2.352,2.078 3.552,3.115 13.411,11.58 28.862,22.929 46.084,32.401 -1.872,6.462 -4.566,11.327 -6.052,13.717 C 8.506,-1.878 4.032,-1.105 0,0"
             style="fill:#15951a;fill-opacity:1;fill-rule:nonzero;stroke:none"
             id="path28" /></g><g
           id="g30"
           transform="translate(384.6985,464.015)"><path
             d="m 0,0 c -0.048,0.16 -0.087,0.322 -0.117,0.484 l -18.409,75.715 c -0.293,1.199 -1.082,2.376 -2.121,3.35 l -0.213,0.176 c -1.17,1.032 -2.522,1.74 -3.751,1.903 l -234.134,26.73 c -0.278,0.03 -0.494,0.026 -0.643,-0.009 l -0.098,-0.03 c -0.058,-0.071 -0.106,-0.213 -0.134,-0.415 l -0.008,-0.09 c -0.044,-0.379 -0.009,-0.822 0.109,-1.313 l 39.272,-161.526 c 0.305,-1.262 1.185,-2.508 2.332,-3.519 1.171,-1.033 2.528,-1.742 3.756,-1.903 l 66.763,-7.622 c 0.523,12.644 8.206,21.098 19.724,25.952 6.903,2.908 15.196,4.449 24.068,4.762 8.722,0.307 18.046,-0.561 27.172,-2.466 27.657,-5.774 53.844,-21.282 57.424,-42.91 l 38.979,-4.454 c 0.279,-0.032 0.495,-0.027 0.641,0.007 l 0.098,0.032 c 0.065,0.079 0.117,0.254 0.145,0.507 0.042,0.382 0.009,0.824 -0.109,1.31 l -8.271,34.023 -0.08,0.321 z"
             style="fill:#99bae8;fill-opacity:1;fill-rule:nonzero;stroke:none"
             id="path32" /></g><g
           id="g34"
           transform="translate(373.0183,512.0562)"><path
             d="m 0,0 -6.846,28.158 c -0.293,1.199 -1.081,2.376 -2.121,3.35 l -0.213,0.176 c -1.17,1.032 -2.522,1.74 -3.751,1.903 l -234.134,26.73 c -0.278,0.03 -0.494,0.026 -0.643,-0.01 l -0.097,-0.029 c -0.059,-0.071 -0.106,-0.213 -0.134,-0.415 l -0.009,-0.09 c -0.044,-0.38 -0.009,-0.823 0.11,-1.313 l 29.286,-120.453 C -166.561,-67.826 -58.345,-70.079 0,0"
             style="fill:#adc9f0;fill-opacity:1;fill-rule:nonzero;stroke:none"
             id="path36" /></g><g
           id="g38"
           transform="translate(366.8795,362.0707)"><path
             d="m 0,0 c 9.045,-1.161 18.401,-2.353 27.864,-3.538 8.091,-1.012 13.332,-1.643 14.662,-1.748 4.916,-0.388 8.186,1.266 9.731,3.667 0.235,0.364 0.433,0.746 0.593,1.138 l -0.011,0.212 c -0.038,0.827 0.15,1.614 0.51,2.298 C 53.355,2.95 53.181,3.886 52.824,4.786 51.913,7.071 49.78,9.142 46.315,10.318 46.063,9.888 45.777,9.479 45.462,9.096 44.222,7.595 42.551,6.529 40.543,6.038 39.364,5.752 38.094,5.671 36.768,5.821 l -37.015,4.23 C -0.008,6.265 0.038,2.83 0,0"
             style="fill:#adc9f0;fill-opacity:1;fill-rule:nonzero;stroke:none"
             id="path40" /></g><g
           id="g42"
           transform="translate(401.9099,348.5765)"><path
             d="m 0,0 c -2.279,0.276 -5.052,0.618 -8.257,1.019 -4.869,0.61 -14.44,1.836 -27.394,3.506 -0.697,-1.905 -2.63,-3.159 -4.734,-2.919 -2.467,0.281 -4.239,2.513 -3.959,4.98 0.003,0.029 1.103,10.999 -0.636,24.01 -2.386,17.843 -25.719,31.052 -50.494,36.225 -8.454,1.764 -17.043,2.569 -25.024,2.289 -7.831,-0.276 -15.041,-1.591 -20.902,-4.059 -9.208,-3.88 -15.015,-10.833 -14.133,-21.387 0.471,-5.637 1.647,-11.603 3.409,-17.49 l 0.006,-0.02 0.031,-0.105 c 1.726,-5.74 4.011,-11.401 6.736,-16.596 4.952,-9.438 11.294,-17.243 18.285,-20.971 20.368,-10.864 44.535,-14.116 68.194,-11.011 C -37.802,-19.766 -17.173,-11.96 0,0"
             style="fill:#17bb62;fill-opacity:1;fill-rule:nonzero;stroke:none"
             id="path44" /></g><g
           id="g46"
           transform="translate(401.9099,348.5765)"><path
             d="m 0,0 c -2.279,0.276 -5.052,0.618 -8.257,1.019 -4.869,0.61 -14.44,1.836 -27.394,3.506 -0.697,-1.905 -2.63,-3.159 -4.734,-2.919 -2.467,0.281 -4.239,2.513 -3.959,4.98 0.002,0.02 0.509,5.076 0.292,12.388 C -56.93,8.266 -83.968,5.744 -112.917,7.732 c -36.813,2.528 -42.399,41.416 -42.418,41.554 -0.292,-1.746 -0.365,-3.62 -0.198,-5.622 0.471,-5.637 1.647,-11.603 3.409,-17.49 l 0.006,-0.02 0.031,-0.105 c 1.726,-5.74 4.011,-11.401 6.736,-16.596 4.952,-9.438 11.294,-17.243 18.285,-20.971 20.368,-10.864 44.535,-14.116 68.194,-11.011 C -37.802,-19.766 -17.173,-11.96 0,0"
             style="fill:#009c75;fill-opacity:1;fill-rule:nonzero;stroke:none"
             id="path48" /></g><g
           id="g50"
           transform="translate(307.6435,415.1388)"><path
             d="m 0,0 -1.208,0.258 c -8.454,1.765 -17.043,2.57 -25.024,2.289 -7.831,-0.275 -15.041,-1.59 -20.902,-4.059 -2.229,-0.94 -4.259,-2.06 -6.043,-3.368 2.425,-9.102 7.709,-23.46 16.633,-21.804 8.924,1.656 10.136,16.512 10.026,25.603 0.85,-9.259 3.508,-21.19 11.557,-21.378 C -6.069,-22.667 -1.822,-8.944 0,0 m 25.647,-9.094 c -7.569,3.955 -16.326,7.017 -25.328,9.021 -1.093,-9.253 -1.646,-25.478 7.559,-27.203 8.221,-1.54 14.371,9.734 17.769,18.182"
             style="fill:#f4faa4;fill-opacity:1;fill-rule:nonzero;stroke:none"
             id="path52" /></g><g
           id="g54"
           transform="translate(424.4532,375.7124)"><path
             d="m 0,0 c 1.606,-1.675 2.8,-3.565 3.591,-5.549 0.962,-2.418 1.32,-4.973 1.094,-7.458 C 4.658,-13.3 4.623,-13.591 4.58,-13.883 l 109.805,32.481 c 2.146,0.635 3.242,2.178 3.456,3.782 0.086,0.661 0.039,1.347 -0.133,1.996 -0.157,0.592 -0.427,1.143 -0.792,1.596 -0.781,0.966 -2.223,1.474 -4.263,0.928 z"
             style="fill:#99bae8;fill-opacity:1;fill-rule:nonzero;stroke:none"
             id="path56" /></g><g
           id="g58"
           transform="translate(239.4377,378.7512)"><path
             d="m 0,0 c -0.626,2.712 -1.131,5.413 -1.505,8.068 l -68.487,7.823 c -1.375,0.177 -2.758,0.581 -4.086,1.168 -0.504,-0.369 -0.845,-0.805 -1.05,-1.274 -0.327,-0.747 -0.411,-1.638 -0.32,-2.532 v -0.017 c 0.098,-0.975 0.407,-1.913 0.839,-2.674 0.273,-0.481 0.272,-0.783 0.341,-0.818 z"
             style="fill:#adc9f0;fill-opacity:1;fill-rule:nonzero;stroke:none"
             id="path60" /></g><g
           id="g62"
           transform="translate(459.937,268.7643)"><path
             d="m 0,0 c 0.176,-0.191 0.333,-0.396 0.471,-0.612 l 0.948,-1.205 c 18.733,-23.501 44.02,-37.096 71.796,-37.096 0.986,0 1.967,0.019 2.947,0.053 0.168,0.023 0.339,0.038 0.513,0.041 0.126,0.003 0.252,-10e-4 0.377,-0.007 24.767,1.123 47.365,13.1 64.835,33.244 17.74,20.457 30.237,49.308 34.479,83.825 -3.493,1.149 -6.977,2.327 -10.428,3.526 -29.134,10.118 -56.117,21.688 -67.474,28.629 -3.911,2.39 -6.834,6.902 -8.846,12.813 -1.588,-2.805 -4.275,-5.13 -8.183,-6.286 l -111.978,-33.124 0.006,-0.05 10e-4,-0.01 0.011,-0.112 0.003,-0.038 C -27.261,49.799 -16.192,21.121 0,0"
             style="fill:#b7e065;fill-opacity:1;fill-rule:nonzero;stroke:none"
             id="path64" /></g><g
           id="g66"
           transform="translate(608.3942,356.8681)"><path
             d="m 0,0 c -22.032,8.319 -40.958,16.772 -49.993,22.294 -3.911,2.39 -6.834,6.902 -8.846,12.813 -1.589,-2.805 -4.275,-5.13 -8.183,-6.285 l -95.631,-28.29 c 9.907,-54.161 42.584,-93.912 81.374,-93.912 38.662,0 71.256,39.49 81.279,93.38"
             style="fill:#f4faa4;fill-opacity:1;fill-rule:nonzero;stroke:none"
             id="path68" /></g><g
           id="g70"
           transform="translate(506.709,375.4354)"><path
             d="m 0,0 -8.89,-2.629 c 0.421,-11.947 1.52,-24.517 3.498,-37.621 -23.107,2.943 -34.08,12.288 -34.135,12.334 -1.914,1.574 -4.743,1.298 -6.318,-0.616 -1.574,-1.914 -1.299,-4.743 0.616,-6.317 0.063,-0.054 13.596,-11.559 41.339,-14.495 2.735,-15.272 6.68,-31.211 12.134,-47.685 0.778,-2.36 3.324,-3.645 5.685,-2.867 2.36,0.777 3.645,3.323 2.868,5.684 -5.055,15.267 -8.784,30.055 -11.433,44.25 15.901,-0.467 35.62,1.918 59.271,9.936 2.35,0.797 3.612,3.351 2.815,5.702 -0.797,2.35 -3.35,3.612 -5.701,2.815 C 38.173,-39.502 18.947,-41.66 3.824,-41.023 1.551,-26.651 0.369,-12.935 0,0"
             style="fill:#b7e065;fill-opacity:1;fill-rule:nonzero;stroke:none"
             id="path72" /></g><g
           id="g74"
           transform="translate(451.3172,265.2659)"><path
             d="m 0,0 c -6.946,9.419 -12.95,20.165 -17.819,32.052 l 0.022,-0.093 C -14.429,17.854 -9.29,5.398 -2.773,-5.47 -1.803,-3.521 -0.877,-1.697 0,0"
             style="fill:#15951a;fill-opacity:1;fill-rule:nonzero;stroke:none"
             id="path76" /></g><g
           id="g78"
           transform="translate(532.387,220.8487)"><path
             d="m 0,0 c -28.769,0.234 -54.977,13.588 -74.914,36.702 -1.249,-2.478 -2.579,-5.178 -3.976,-8.098 -0.142,-0.55 -0.388,-1.073 -0.733,-1.541 -5.208,-10.993 -11.287,-24.935 -17.533,-41.611 -6.872,-18.347 -13.953,-39.99 -20.318,-64.646 -1.482,-5.746 -0.233,-10.524 2.965,-14.422 4.385,-5.343 12.306,-9.37 22.055,-12.207 10.205,-2.97 22.284,-4.583 34.458,-5.02 27.874,-0.999 55.734,3.823 61.789,12.36 5.573,7.856 3.157,28.68 0.225,53.925 C 2.408,-30.683 0.646,-15.519 0,0"
             style="fill:#17bb62;fill-opacity:1;fill-rule:nonzero;stroke:none"
             id="path80" /></g><g
           id="g82"
           transform="translate(532.387,220.8487)"><path
             d="m 0,0 c -28.769,0.234 -54.977,13.588 -74.914,36.702 -1.249,-2.478 -2.579,-5.178 -3.976,-8.098 -0.142,-0.55 -0.388,-1.073 -0.733,-1.541 -1.246,-2.629 -2.541,-5.428 -3.877,-8.392 9.288,-7.696 21.229,-16.912 30.384,-21.637 17.453,-9.009 33.781,-16.328 33.781,-43.918 0,-27.589 -3.882,-50.597 -36.034,-50.11 -32.15,0.487 -56.828,4.42 -59.85,26.304 -0.76,-2.793 -1.513,-5.628 -2.255,-8.504 -1.482,-5.746 -0.233,-10.524 2.965,-14.422 4.385,-5.343 12.306,-9.37 22.055,-12.207 10.205,-2.97 22.284,-4.583 34.458,-5.02 27.874,-0.999 55.734,3.823 61.789,12.36 5.573,7.856 3.157,28.68 0.225,53.925 C 2.408,-30.683 0.646,-15.519 0,0"
             style="fill:#009c75;fill-opacity:1;fill-rule:nonzero;stroke:none"
             id="path84" /></g><g
           id="g86"
           transform="translate(444.5643,113.7993)"><path
             d="m 0,0 c 9.138,-2.193 19.447,-3.422 29.826,-3.793 8.266,-0.296 16.53,-0.081 24.225,0.591 C 52.59,7.198 48.689,27.366 40.436,26.787 29.333,26.006 27.596,9.202 26.873,-1.307 26.872,9.5 25.313,23.652 17.298,25.018 8.075,26.595 2.497,9.995 0,0 m -25.886,12.516 c 4.511,-4.89 12.072,-8.618 21.255,-11.29 1.334,-0.388 2.701,-0.753 4.095,-1.096 1.293,9.381 2.362,26.809 -6.83,30.176 -8.669,3.175 -15.228,-9.452 -18.52,-17.79"
             style="fill:#f4faa4;fill-opacity:1;fill-rule:nonzero;stroke:none"
             id="path88" /></g><g
           id="g90"
           transform="translate(495.1946,127.1026)"><path
             d="m 0,0 c -4.73,-2.199 -10.685,-3.362 -18.176,-3.248 -1.441,0.021 -2.864,0.051 -4.273,0.088 -0.733,-3.971 -1.073,-8.041 -1.308,-11.45 0,3.662 -0.182,7.708 -0.729,11.51 -8.067,0.262 -15.567,0.819 -22.254,1.928 -1.708,-4.133 -2.996,-8.555 -3.89,-12.131 9.138,-2.194 19.447,-3.422 29.826,-3.793 8.266,-0.297 16.529,-0.081 24.225,0.591 C 2.789,-12.007 1.7,-5.684 0,0 m -76.516,-0.788 c 4.511,-4.889 12.072,-8.617 21.255,-11.289 1.334,-0.388 2.7,-0.753 4.094,-1.096 0.482,3.49 0.931,8.091 0.834,12.669 -8.994,1.86 -16.278,4.908 -21.162,9.849 -2.092,-3.274 -3.787,-7.005 -5.021,-10.133"
             style="fill:#c1f066;fill-opacity:1;fill-rule:nonzero;stroke:none"
             id="path92" /></g><g
           id="g94"
           transform="translate(542.7087,201.7436)"><path
             d="m 0,0 c 3.851,-0.432 7.695,-0.711 11.514,-0.84 3.745,-0.125 7.516,-0.107 11.291,0.054 1.518,10.395 3.197,19.652 4.846,27.651 -9.19,-4 -18.913,-6.518 -29.003,-7.407 C -1.078,12.951 -0.592,6.426 0,0"
             style="fill:#15951a;fill-opacity:1;fill-rule:nonzero;stroke:none"
             id="path96" /></g><g
           id="g98"
           transform="translate(431.5026,416.9522)"><path
             d="m 0,0 105.789,-5.172 c 3.661,0.395 6.729,-0.625 9.075,-2.478 l -0.074,1.124 c -0.682,11.421 0.322,24.663 2.776,37.118 2.479,12.588 6.471,24.499 11.735,33.114 5.155,8.433 11.647,13.904 19.379,14.367 6.852,0.41 15.849,-2.042 26.047,-6.475 -5.115,7.989 -10.738,15.216 -16.781,21.517 l -0.192,0.2 c -4.004,4.154 -8.191,7.903 -12.537,11.193 -13.281,10.053 -28.052,15.808 -43.568,15.808 -23.231,0 -45.14,-13.386 -62.936,-34.845 C 20.495,63.503 6.641,33.187 0,0"
             style="fill:#b7e065;fill-opacity:1;fill-rule:nonzero;stroke:none"
             id="path100" /></g><g
           id="g102"
           transform="translate(444.1977,416.3314)"><path
             d="m 0,0 93.093,-4.552 c 3.662,0.396 6.729,-0.624 9.076,-2.477 l -0.074,1.124 c -0.682,11.421 0.322,24.663 2.776,37.118 2.479,12.588 6.471,24.499 11.735,33.114 4.587,7.506 10.236,12.667 16.874,14.036 -14.096,16.041 -31.599,25.54 -50.563,25.54 C 41.78,103.903 7.517,59.194 0,0"
             style="fill:#f4faa4;fill-opacity:1;fill-rule:nonzero;stroke:none"
             id="path104" /></g><g
           id="g106"
           transform="translate(498.9513,413.654)"><path
             d="m 0,0 8.949,-0.437 c 0.976,10.571 2.423,20.325 4.112,29.157 10.08,-1.159 22.096,-1.267 36.215,0.529 0.258,1.555 0.538,3.104 0.841,4.641 0.291,1.476 0.601,2.942 0.933,4.395 -0.49,0.105 -1.006,0.128 -1.532,0.058 C 35.865,36.499 24.391,36.492 14.877,37.486 21.376,66.633 29.9,83.66 29.956,83.775 c 1.088,2.235 0.159,4.932 -2.076,6.019 -2.234,1.088 -4.931,0.158 -6.019,-2.076 -0.058,-0.121 -9.093,-18.165 -15.869,-48.932 -20.629,3.945 -29.328,12.473 -29.368,12.51 -1.807,1.701 -4.651,1.614 -6.352,-0.193 -1.7,-1.807 -1.614,-4.652 0.193,-6.352 C -29.491,44.709 -19.207,34.653 4.21,30.084 2.477,20.956 0.996,10.891 0,0"
             style="fill:#b7e065;fill-opacity:1;fill-rule:nonzero;stroke:none"
             id="path108" /></g><g
           id="g110"
           transform="translate(405.0674,418.2443)"><path
             d="m 0,0 17.348,-0.848 c 6.83,35.152 21.486,67.392 40.867,90.762 4.437,5.35 9.125,10.24 14.027,14.603 1.388,5.59 1.583,10.919 1.098,15.768 C 57.714,111.431 43.634,101.008 31.321,90.376 13.052,74.6 -1.362,58.327 -11.183,45.999 Z"
             style="fill:#17bb62;fill-opacity:1;fill-rule:nonzero;stroke:none"
             id="path112" /></g><g
           id="g114"
           transform="translate(405.0674,418.2443)"><path
             d="m 0,0 17.348,-0.848 c 6.83,35.152 21.486,67.392 40.867,90.762 4.437,5.35 9.125,10.24 14.027,14.603 1.388,5.59 1.583,10.919 1.098,15.768 C 57.714,111.431 43.634,101.008 31.321,90.376 l -0.31,-0.268 C 21.726,56.454 18.086,19.37 -4.942,20.331 Z"
             style="fill:#009c75;fill-opacity:1;fill-rule:nonzero;stroke:none"
             id="path116" /></g><g
           id="g118"
           transform="translate(505.6161,404.3345)"><path
             d="m 0,0 -79.415,3.883 c -0.195,-0.004 -0.391,0.006 -0.59,0.029 l -18.33,0.895 6.505,-26.753 z"
             style="fill:#759bd1;fill-opacity:1;fill-rule:nonzero;stroke:none"
             id="path120" /></g><g
           id="g122"
           transform="translate(661.6996,339.2802)"><path
             d="m 0,0 c -5.479,1.518 -11.075,3.176 -16.693,4.933 -4.665,-35.591 -17.816,-65.488 -36.39,-86.907 -8.319,-9.591 -17.72,-17.488 -27.934,-23.452 -2.212,-9.873 -4.602,-22.293 -6.66,-36.986 0.024,-0.556 -0.055,-1.095 -0.221,-1.596 -0.327,-2.387 -0.646,-4.835 -0.952,-7.339 -2.393,-19.527 -4.098,-42.505 -4.098,-68.346 0,-6.068 2.809,-10.734 7.519,-14.207 6.927,-5.107 17.827,-7.898 30.294,-8.926 12.898,-1.063 27.302,-0.215 40.772,1.934 23.814,3.799 44.423,11.234 47.646,18.869 3.899,9.235 -4.851,33.106 -15.056,60.944 -5.585,15.242 -11.595,31.635 -16.249,47.802 -0.032,0.11 -0.059,0.221 -0.081,0.332 -0.444,1.624 -0.767,3.382 -0.947,5.273 -1.718,18.027 -2.98,39.512 -3.079,60.811 C -2.202,-30.603 -1.598,-14.443 0,0"
             style="fill:#17bb62;fill-opacity:1;fill-rule:nonzero;stroke:none"
             id="path124" /></g><g
           id="g126"
           transform="translate(661.6996,339.2802)"><path
             d="m 0,0 c -5.479,1.518 -11.075,3.176 -16.693,4.933 -4.665,-35.591 -17.816,-65.488 -36.39,-86.907 -8.319,-9.591 -17.72,-17.488 -27.934,-23.452 -1.158,-5.169 -2.365,-11.036 -3.548,-17.563 8.128,1.709 20.705,5.325 34.45,12.851 23.648,12.951 37.162,-12.386 43.354,-41.102 6.193,-28.715 21.958,-59.682 9.571,-71.505 -12.386,-11.824 -70.464,-22.281 -95.477,-0.162 0.818,-4.533 3.396,-8.16 7.238,-10.993 6.927,-5.107 17.827,-7.898 30.294,-8.926 12.898,-1.063 27.302,-0.215 40.772,1.934 23.814,3.799 44.423,11.234 47.646,18.869 3.899,9.235 -4.851,33.106 -15.056,60.944 -5.585,15.242 -11.595,31.635 -16.249,47.802 -0.032,0.11 -0.059,0.221 -0.081,0.332 -0.444,1.624 -0.767,3.382 -0.947,5.273 -1.718,18.027 -2.98,39.512 -3.079,60.811 C -2.202,-30.603 -1.598,-14.443 0,0"
             style="fill:#009c75;fill-opacity:1;fill-rule:nonzero;stroke:none"
             id="path128" /></g><g
           id="g130"
           transform="translate(610.9195,96.1695)"><path
             d="M 0,0 C 11.735,-0.574 24.445,0.309 36.417,2.219 42.904,3.253 49.151,4.559 54.875,6.064 52.361,13.681 43.312,38.826 34.208,36.26 23.496,33.24 25.209,16.434 26.637,5.997 24.44,16.578 20.037,30.118 11.913,29.827 1.986,29.476 0.244,9.902 0,0 M -28.32,5.614 C -21.81,2.743 -13.503,1.04 -4.355,0.285 -3.046,0.177 -1.722,0.089 -0.385,0.02 -0.825,8.853 -2.967,28.467 -13.311,29.992 -23.65,31.516 -27.226,13.769 -28.32,5.614"
             style="fill:#f4faa4;fill-opacity:1;fill-rule:nonzero;stroke:none"
             id="path132" /></g><g
           id="g134"
           transform="translate(661.3012,114.1112)"><path
             d="m 0,0 c -5.322,-3.334 -14.028,-6.372 -24.203,-8.348 0.146,-1.257 0.304,-2.464 0.458,-3.597 -0.239,1.151 -0.504,2.336 -0.797,3.535 -7.906,-1.512 -16.68,-2.382 -25.423,-2.258 -0.248,-2.673 -0.365,-5.189 -0.417,-7.274 11.736,-0.574 24.445,0.309 36.418,2.219 6.486,1.034 12.733,2.341 18.457,3.845 C 3.649,-9.322 2.07,-4.793 0,0 m -78.701,-12.328 c 6.509,-2.871 14.816,-4.574 23.964,-5.329 1.309,-0.107 2.633,-0.195 3.97,-0.264 -0.1,1.99 -0.286,4.528 -0.632,7.283 -9.177,0.246 -18.264,1.613 -26.232,4.51 -0.496,-2.314 -0.839,-4.472 -1.07,-6.2"
             style="fill:#c1f066;fill-opacity:1;fill-rule:nonzero;stroke:none"
             id="path136" /></g><g
           id="g138"
           transform="translate(690.9436,237.8938)"><path
             d="m 0,0 c -0.04,0.17 -0.073,0.343 -0.093,0.521 -1.64,13.641 -2.814,29.513 -3.407,46.731 -0.523,15.198 -0.586,31.4 -0.107,47.976 -5.339,1.041 -11,2.334 -16.863,3.824 -1.45,-13.741 -1.999,-29.055 -1.929,-44.49 0.097,-20.974 1.344,-42.182 3.042,-60.002 0.128,-1.337 0.347,-2.559 0.643,-3.665 0.038,-0.105 0.074,-0.212 0.105,-0.322 l 0.215,-0.745 c 1.052,-3.141 2.776,-5.215 4.757,-6.24 1.105,-0.572 2.318,-0.811 3.53,-0.714 1.247,0.1 2.527,0.568 3.728,1.402 C -2.936,-13.332 -0.221,-8.138 0,0"
             style="fill:#50bb17;fill-opacity:1;fill-rule:nonzero;stroke:none"
             id="path140" /></g><g
           id="g142"
           transform="translate(690.9436,237.8938)"><path
             d="m 0,0 c -0.04,0.17 -0.073,0.343 -0.093,0.521 -1.64,13.641 -2.814,29.513 -3.407,46.731 -0.523,15.198 -0.586,31.4 -0.107,47.976 -2.446,0.476 -4.961,1.006 -7.531,1.585 -1.407,-13.599 -1.94,-28.712 -1.872,-43.943 0.098,-20.974 1.345,-42.182 3.043,-60.002 0.128,-1.337 0.346,-2.559 0.642,-3.665 0.039,-0.104 0.074,-0.212 0.105,-0.321 l 0.216,-0.746 c 0.564,-1.683 1.32,-3.061 2.206,-4.133 0.139,0.086 0.281,0.177 0.419,0.273 C -2.936,-13.332 -0.221,-8.138 0,0"
             style="fill:#c1f066;fill-opacity:1;fill-rule:nonzero;stroke:none"
             id="path144" /></g><g
           id="g146"
           transform="translate(742.492,504.4644)"><path
             d="m 0,0 c -17.699,30.232 -42.5,56.996 -73.815,76.44 l -6.096,-59.033 c 9.432,-7.586 19.095,-16.295 28.278,-26.119 z m 28.058,-74.532 c -4.271,22.258 -11.915,44.305 -22.762,64.98 l -0.645,1.218 -49.201,-8.3 c 12.682,-14.853 24.011,-31.975 31.922,-51.345 5.358,-13.116 9.317,-24.83 12.012,-35.233 z M 0.128,-219.628 c 9.319,12.529 16.546,26.442 21.744,41.265 9.086,25.917 12.004,54.626 9.133,83.58 -0.309,3.111 -0.685,6.224 -1.125,9.335 L 1.74,-113.593 c 2.279,-11.843 2.661,-21.7 1.391,-29.744 -1.093,-6.918 -3.385,-12.584 -6.729,-17.088 -3.192,-4.3 -7.305,-7.505 -12.216,-9.701 z m -43.571,-38.764 c 14.397,8.348 26.651,18.63 36.834,30.381 l -17.786,55.227 c -6.435,-1.246 -13.769,-1.231 -21.823,-0.097 -0.433,-15.946 -0.361,-31.522 0.143,-46.157 0.485,-14.114 1.387,-27.406 2.632,-39.354 m -92.793,311.994 c 8.008,-3.942 26.829,-13.875 47.964,-29.705 l 5.943,57.557 c -9.374,5.23 -19.29,9.821 -29.729,13.681 -2.191,-3.638 -4.441,-7.265 -6.691,-10.894 -6.272,-10.112 -12.555,-20.244 -17.487,-30.639"
             style="fill:#50bb17;fill-opacity:1;fill-rule:nonzero;stroke:none"
             id="path148" /></g><g
           id="g150"
           transform="translate(762.6274,409.2695)"><path
             d="m 0,0 c 3.673,-39.903 -3.229,-81.416 -20.008,-124.433 9.32,12.529 16.546,26.442 21.744,41.265 9.086,25.917 12.005,54.626 9.133,83.58 C 10.56,3.523 10.185,6.636 9.744,9.747 Z M -25.456,85.179 C -12.958,61.262 -4.983,36.658 -1.346,11.393 l 9.268,9.27 C 3.651,42.921 -3.993,64.968 -14.839,85.643 l -0.645,1.218 z m -68.494,86.456 c 27.34,-25.119 48.553,-51.17 63.927,-78.109 l 9.888,1.669 c -17.699,30.232 -42.5,56.995 -73.815,76.44"
             style="fill:#c1f066;fill-opacity:1;fill-rule:nonzero;stroke:none"
             id="path152" /></g><g
           id="g154"
           transform="translate(724.8248,310.7893)"><path
             d="m 0,0 c -16.468,-19.064 -14.275,-22.418 -13.493,-56.764 -3.906,-2.814 -8,-5.469 -12.283,-7.953 -1.245,11.948 -2.147,25.24 -2.632,39.354 -0.504,14.635 -0.575,30.211 -0.143,46.157 8.055,-1.134 15.388,-1.149 21.824,0.097 z M 28.454,89.131 C 33.46,60.108 29.188,32.307 10.318,11.536 L 6.927,7.795 1.853,23.549 c 4.912,2.197 9.024,5.402 12.216,9.701 3.344,4.504 5.636,10.17 6.729,17.088 1.27,8.044 0.889,17.901 -1.39,29.744 z M -13.017,179.38 C 4.842,155.644 19.44,127.418 26.244,99.659 l -9.193,-9.196 c -2.694,10.403 -6.654,22.117 -12.011,35.234 -7.911,19.369 -19.24,36.491 -31.923,51.344 z m -47.711,46.386 c 14.097,-9.163 28.409,-22.508 41.386,-38.336 l -14.623,-2.466 c -9.183,9.823 -18.846,18.532 -28.279,26.118 z m -57.84,21.511 c 8.007,-3.942 26.828,-13.875 47.963,-29.705 l 1.379,13.357 c -30.914,18.89 -26.468,33.434 -5.342,49.387 -6.379,3.127 -12.989,5.967 -19.823,8.494 -2.19,-3.637 -4.44,-7.265 -6.691,-10.894 -6.272,-10.112 -12.555,-20.243 -17.486,-30.639"
             style="fill:#15951a;fill-opacity:1;fill-rule:nonzero;stroke:none"
             id="path156" /></g><g
           id="g158"
           transform="translate(559.4758,452.8647)"><path
             d="m 0,0 c -0.578,-2.301 -1.104,-4.657 -1.574,-7.044 -2.32,-11.769 -3.273,-24.208 -2.636,-34.866 0.31,-5.174 0.958,-9.868 1.967,-13.755 7.792,0.391 28.917,2.443 28.701,13.193 -0.181,9.075 -14.641,12.688 -23.63,14.059 9.274,-0.668 21.479,0.013 22.974,7.924 C 27.961,-9.072 5.38,-1.607 0,0 M 11.037,26.146 C 10.342,25.212 9.661,24.197 8.999,23.113 5.313,17.081 2.296,9.058 0.06,0.236 c 0,0 29.709,-11.362 34.212,1.026 4.503,12.387 -23.235,24.884 -23.235,24.884"
             style="fill:#f4faa4;fill-opacity:1;fill-rule:nonzero;stroke:none"
             id="path160" /></g><g
           id="g162"
           transform="translate(556.4791,437.326)"><path
             d="M 0,0 C 0,0 1.623,-15.132 26.348,-33.31 20.221,-38.58 6.66,-39.83 0.753,-40.126 l -0.047,0.182 -0.034,0.133 -0.012,0.051 -0.046,0.186 -0.046,0.186 -0.001,0.005 -0.043,0.183 -0.045,0.189 -0.016,0.062 -0.028,0.126 -0.043,0.192 -0.028,0.123 -0.016,0.068 -0.042,0.193 -0.039,0.185 -0.002,0.009 -0.042,0.196 -0.041,0.196 -0.01,0.052 -0.029,0.146 -0.04,0.198 -0.022,0.112 -0.017,0.089 -0.038,0.2 -0.034,0.175 -0.005,0.027 -0.037,0.203 -0.037,0.203 -0.008,0.036 -0.029,0.169 -0.036,0.206 -0.018,0.099 -0.018,0.108 -0.035,0.208 -0.027,0.165 -0.008,0.045 -0.033,0.209 -0.033,0.211 -0.004,0.02 -0.029,0.191 -0.033,0.214 -0.013,0.085 -0.019,0.128 -0.031,0.216 -0.023,0.152 -0.009,0.062 -0.029,0.217 -0.031,0.219 v 0.002 l -0.029,0.216 -0.028,0.22 -0.009,0.07 -0.02,0.149 -0.028,0.222 -0.017,0.139 -0.01,0.083 -0.028,0.223 -0.024,0.209 -0.001,0.015 -0.025,0.225 -0.026,0.226 -0.007,0.054 -0.019,0.172 -0.024,0.227 -0.012,0.125 -0.011,0.104 -0.024,0.228 -0.019,0.197 -0.003,0.033 -0.023,0.231 -0.021,0.231 -0.003,0.039 -0.018,0.194 -0.022,0.233 -0.009,0.11 -0.011,0.124 -0.019,0.235 -0.016,0.183 -0.003,0.053 -0.02,0.236 -0.018,0.237 -10e-4,0.019 -0.016,0.218 -0.017,0.239 -0.006,0.093 -0.027,0.387 -0.012,0.166 -0.005,0.074 -0.014,0.241 -0.015,0.243 -0.022,0.382 -0.006,0.118 -0.027,0.505 -0.008,0.143 -0.016,0.363 -0.002,0.022 -0.016,0.388 -0.004,0.098 -0.012,0.291 -0.007,0.219 -0.006,0.17 -0.012,0.343 -0.001,0.049 -0.012,0.392 -10e-4,0.074 -0.009,0.319 -0.004,0.2 -0.003,0.196 -0.007,0.323 -0.001,0.073 -0.007,0.397 v 0.052 l -0.005,0.347 -10e-4,0.177 -0.001,0.223 -0.003,0.303 v 0.098 0.402 0.027 0.377 0.153 l 0.002,0.25 0.002,0.281 10e-4,0.125 0.004,0.406 v 0.003 l 0.006,0.405 0.003,0.13 0.005,0.278 0.005,0.258 0.003,0.151 0.009,0.388 0.001,0.023 0.01,0.411 0.004,0.105 0.009,0.306 0.008,0.235 0.005,0.177 0.014,0.366 10e-4,0.048 0.017,0.415 0.002,0.082 0.014,0.333 0.01,0.212 0.009,0.205 0.017,0.342 0.004,0.074 0.02,0.417 0.004,0.056 0.019,0.362 0.011,0.187 0.014,0.231 0.018,0.32 0.006,0.1 0.027,0.421 0.001,0.029 0.025,0.391 0.012,0.162 0.018,0.259 0.02,0.294 0.01,0.128 0.031,0.421 v 0.005 l 0.033,0.417 0.011,0.137 0.023,0.286 0.022,0.269 0.013,0.155 0.035,0.402 0.001,0.022 0.038,0.424 0.011,0.111 0.028,0.313 0.022,0.245 0.018,0.18 0.036,0.378 0.005,0.047 0.044,0.425 0.007,0.085 0.036,0.342 0.023,0.218 0.022,0.207 0.038,0.352 0.008,0.074 0.048,0.427 0.007,0.058 0.042,0.367 0.022,0.194 0.027,0.233 0.04,0.326 0.012,0.101 0.052,0.427 0.004,0.033 0.05,0.393 0.021,0.167 0.033,0.259 0.04,0.3 0.017,0.128 0.057,0.427 0.002,0.006 z"
             style="fill:#c1f066;fill-opacity:1;fill-rule:nonzero;stroke:none"
             id="path164" /></g><g
           id="g166"
           transform="translate(497.6591,799.015)"><path
             d="m 0,0 c -0.934,0.446 -1.896,0.855 -2.886,1.23 -8.401,3.177 -18.648,3.792 -28.803,1.834 -10.188,-1.964 -20.218,-6.52 -28.147,-13.678 -1.405,-1.268 -2.742,-2.618 -4.003,-4.05 1.107,0.53 2.224,1.044 3.354,1.54 C -42.26,-5.121 -21.204,-1.59 0,0"
             style="fill:#c1f066;fill-opacity:1;fill-rule:nonzero;stroke:none"
             id="path168" /></g><g
           id="g170"
           transform="translate(548.2206,636.6409)"><path
             d="m 0,0 c -60.56,2.817 -80.144,-25.139 -85.568,-36.495 1.069,-0.078 2.265,-0.117 3.606,-0.115 4.997,0.006 9.748,0.231 14.253,0.642 29.609,2.706 48.443,13.625 59.848,25.752 C -4.683,-6.836 -2.086,-3.38 0,0"
             style="fill:#fa8787;fill-opacity:1;fill-rule:nonzero;stroke:none"
             id="path172" /></g><g
           id="g174"
           transform="translate(473.2541,570.3056)"><path
             d="M 0,0 C 0.134,-0.005 0.268,-0.014 0.4,-0.031 1.07,-0.083 1.744,-0.129 2.426,-0.169 12.961,-0.786 24.751,0.019 35.751,1.912 38.2,2.33 40.525,0.684 40.942,-1.765 41.36,-4.214 39.714,-6.539 37.265,-6.956 27.652,-8.611 17.43,-9.475 7.822,-9.35 c 1.66,-3.413 3.462,-7.854 4.756,-13.043 l 0.117,-0.211 c 0.423,-0.802 0.577,-1.675 0.499,-2.515 0.884,-4.365 1.369,-9.181 1.115,-14.3 14.031,9.802 29.463,15.39 45.589,15.39 17.567,0 34.166,-6.42 48.986,-17.638 1.905,-1.442 3.78,-2.964 5.624,-4.562 1.082,25.389 14.737,47.41 28.343,69.345 22.045,35.542 43.945,70.855 5.429,118.756 -0.891,1.12 -1.24,2.645 -0.793,4.118 1.336,4.372 2.221,8.76 2.672,13.11 1.597,15.374 -2.22,30.192 -10.193,42.301 -7.972,12.108 -20.112,21.538 -35.157,26.145 -4.239,1.299 -8.725,2.217 -13.428,2.705 -18.547,1.926 -31.649,-2.632 -40.52,-8.364 -0.271,-0.229 -0.571,-0.426 -0.892,-0.587 -10.699,-7.236 -14.887,-16.016 -14.91,-16.061 -1.107,-2.215 -3.803,-3.113 -6.018,-2.006 -2.215,1.107 -3.113,3.803 -2.006,6.018 0.02,0.037 2.452,5.124 8.136,11.125 -23.711,-1.148 -47.676,-4.251 -67.661,-13.026 -23.006,-10.102 -40.877,-27.955 -47.042,-59.558 -2.49,-12.757 -0.572,-30.799 3.181,-47.224 4.347,-19.014 10.782,-35.41 15.367,-38.24 2.223,-1.372 10.111,3.102 19.973,8.697 14.788,8.39 33.367,18.93 51.704,17.343 5.856,-0.506 11.738,-1.486 17.613,-2.463 17.967,-2.989 35.909,-5.972 54.777,6.442 0.562,0.731 1.347,1.288 2.264,1.562 4.621,3.334 9.299,7.619 14.049,13.082 1.621,1.876 4.458,2.08 6.334,0.459 1.875,-1.622 2.08,-4.459 0.459,-6.335 C 101.1,95.263 96.103,90.604 91.18,86.915 91.011,82.221 89.617,75.911 86.524,69.059 86.404,68.669 86.234,68.304 86.021,67.97 83.24,62.099 79.213,55.877 73.65,49.96 60.979,36.485 40.269,24.371 8.067,21.43 3.312,20.996 -1.708,20.76 -6.996,20.752 c -11.445,-0.018 -17.041,2.76 -19.293,7.365 -1.824,-3.822 -2.742,-7.613 -2.595,-11.055 l 0.002,-0.048 c 0.153,-3.431 1.407,-6.574 3.937,-9.068 1.134,-1.118 2.532,-2.126 4.206,-2.996 l 0.014,-0.008 C -15.555,2.266 -8.27,0.671 0,0"
             style="fill:#17bb62;fill-opacity:1;fill-rule:nonzero;stroke:none"
             id="path176" /></g><g
           id="g178"
           transform="translate(571.8672,535.4654)"><path
             d="m 0,0 c 3.507,-2.02 6.934,-4.302 10.27,-6.827 1.905,-1.442 3.781,-2.964 5.625,-4.562 C 16.977,14 30.632,36.021 44.237,57.957 63.178,88.491 82.008,118.858 62.515,157.181 81.907,98.539 25.836,48.353 15.983,32.307 9.766,22.183 3.661,8.626 0,0 m -65.273,27.257 c -8.437,-1.244 -17.208,-1.876 -25.518,-1.767 1.659,-3.413 3.462,-7.854 4.756,-13.043 l 0.117,-0.21 c 0.423,-0.803 0.577,-1.675 0.498,-2.516 0.885,-4.365 1.37,-9.181 1.116,-14.3 6.045,4.223 12.35,7.662 18.859,10.212 -1.553,7.915 -0.878,15.78 0.172,21.624 m -33.34,7.583 c 0.134,-0.005 0.268,-0.014 0.399,-0.03 0.671,-0.053 1.345,-0.099 2.027,-0.138 10.535,-0.618 22.325,0.187 33.325,2.081 0,0 -24.188,1.185 -43.05,7.661 -9.128,3.133 -12.388,8.575 -13.323,13.355 -2.805,1.257 -4.607,3.02 -5.667,5.188 -1.824,-3.822 -2.742,-7.612 -2.595,-11.055 l 0.001,-0.048 c 0.154,-3.431 1.407,-6.573 3.938,-9.068 1.134,-1.118 2.532,-2.126 4.206,-2.996 l 0.014,-0.007 c 5.169,-2.677 12.455,-4.271 20.725,-4.943"
             style="fill:#009c75;fill-opacity:1;fill-rule:nonzero;stroke:none"
             id="path180" /></g><g
           id="g182"
           transform="translate(501.474,781.6773)"><path
             d="M 0,0 C 1.24,2.043 3.495,5.355 6.951,9.004 -16.76,7.856 -40.725,4.754 -60.71,-4.022 c -9.67,-4.247 -18.434,-9.864 -25.801,-17.294 l 0.347,-0.397 C -66.461,-6.876 -36.295,3.47 0,0 m 120.757,-59.671 c 0.535,2.473 0.928,4.942 1.182,7.4 1.597,15.374 -2.22,30.191 -10.193,42.3 C 103.774,2.137 91.634,11.568 76.59,16.174 72.35,17.473 67.864,18.391 63.161,18.879 44.614,20.806 31.512,16.247 22.641,10.516 22.37,10.286 22.07,10.089 21.749,9.928 15.965,6.016 12.085,1.653 9.736,-1.536 54.595,36.351 128.756,-1.138 119.08,-66.425 Z"
             style="fill:#c1f066;fill-opacity:1;fill-rule:nonzero;stroke:none"
             id="path184" /></g><g
           id="g186"
           transform="translate(399.8276,737.9592)"><path
             d="m 0,0 c -2.612,-5.929 -4.674,-12.524 -6.106,-19.862 -2.49,-12.757 -0.572,-30.799 3.182,-47.224 4.346,-19.014 10.781,-35.409 15.366,-38.239 2.223,-1.372 10.111,3.102 19.973,8.696 14.789,8.39 33.367,18.93 51.705,17.343 5.855,-0.506 11.738,-1.486 17.612,-2.463 17.968,-2.989 35.909,-5.972 54.778,6.443 0.562,0.73 1.347,1.287 2.263,1.562 0.958,0.69 1.918,1.422 2.881,2.197 -3.943,-2.605 -9.791,-5.297 -17.937,-6.331 C 116.852,-81.284 77.728,-53.501 20.901,-81.09 3.168,-76.022 -6.103,-19.876 0,0"
             style="fill:#009c75;fill-opacity:1;fill-rule:nonzero;stroke:none"
             id="path188" /></g><g
           id="g190"
           transform="translate(564.958,760.3199)"><path
             d="M 0,0 C 11.778,0.727 22.13,-11.715 23.122,-27.791 24.114,-43.867 15.371,-57.487 3.593,-58.214 -8.185,-58.941 -18.537,-46.499 -19.53,-30.423 -20.522,-14.348 -11.778,-0.727 0,0"
             style="fill:#002e14;fill-opacity:1;fill-rule:evenodd;stroke:none"
             id="path192" /></g><g
           id="g194"
           transform="translate(457.2891,563.8873)"><path
             d="m 0,0 c -0.659,-0.893 -1.397,-1.87 -2.214,-2.954 -6.89,-9.129 -19.597,-25.968 -28.114,-48.635 1.168,1.04 2.352,2.078 3.552,3.115 13.411,11.58 28.862,22.929 46.084,32.401 -1.872,6.462 -4.566,11.327 -6.052,13.717 C 8.506,-1.878 4.032,-1.105 0,0 m -72.591,-99.872 c -0.048,0.16 -0.086,0.322 -0.117,0.484 l -18.409,75.715 c -0.293,1.198 -1.081,2.376 -2.121,3.35 l -0.213,0.176 c -1.17,1.032 -2.522,1.74 -3.751,1.902 l -234.133,26.73 c -0.279,0.031 -0.495,0.027 -0.644,-0.009 l -0.097,-0.029 c -0.059,-0.071 -0.106,-0.213 -0.134,-0.415 l -0.009,-0.09 c -0.044,-0.38 -0.009,-0.823 0.11,-1.313 l 39.272,-161.526 c 0.305,-1.262 1.185,-2.508 2.331,-3.519 1.171,-1.033 2.528,-1.742 3.757,-1.904 l 66.763,-7.621 c 0.522,12.644 8.206,21.098 19.724,25.952 6.902,2.907 15.195,4.449 24.067,4.761 8.722,0.308 18.047,-0.56 27.172,-2.465 27.657,-5.774 53.844,-21.282 57.425,-42.91 l 38.978,-4.455 c 0.28,-0.032 0.496,-0.026 0.641,0.008 l 0.099,0.032 c 0.065,0.079 0.117,0.254 0.145,0.507 0.042,0.382 0.009,0.823 -0.11,1.31 l -8.271,34.023 -0.079,0.321 z M -90.41,-201.817 c 9.045,-1.161 18.402,-2.352 27.864,-3.537 8.091,-1.013 13.333,-1.643 14.663,-1.748 4.916,-0.389 8.185,1.265 9.73,3.667 0.236,0.363 0.433,0.746 0.593,1.137 l -0.01,0.212 c -0.039,0.828 0.149,1.614 0.509,2.298 0.007,0.921 -0.167,1.857 -0.525,2.757 -0.911,2.286 -3.043,4.357 -6.509,5.532 -0.251,-0.429 -0.537,-0.838 -0.852,-1.221 -1.241,-1.502 -2.912,-2.568 -4.92,-3.058 -1.179,-0.286 -2.449,-0.368 -3.775,-0.218 l -37.014,4.231 c 0.239,-3.787 0.285,-7.222 0.246,-10.052 m 35.031,-13.494 c -2.279,0.276 -5.052,0.618 -8.257,1.019 -4.869,0.61 -14.44,1.836 -27.394,3.506 -0.697,-1.905 -2.63,-3.159 -4.735,-2.919 -2.467,0.281 -4.238,2.513 -3.958,4.98 0.003,0.029 1.102,11 -0.637,24.01 -2.385,17.844 -25.719,31.052 -50.494,36.225 -8.453,1.764 -17.042,2.57 -25.024,2.289 -7.831,-0.276 -15.041,-1.591 -20.901,-4.059 -9.209,-3.88 -15.015,-10.832 -14.133,-21.387 0.471,-5.637 1.647,-11.603 3.409,-17.489 l 0.006,-0.021 0.031,-0.104 c 1.726,-5.741 4.01,-11.401 6.736,-16.597 4.952,-9.438 11.294,-17.243 18.284,-20.971 20.369,-10.864 44.535,-14.115 68.194,-11.011 21.071,2.763 41.7,10.569 58.873,22.529 m 22.543,27.136 c 1.606,-1.675 2.8,-3.565 3.591,-5.549 0.962,-2.418 1.32,-4.973 1.094,-7.458 -0.027,-0.293 -0.062,-0.584 -0.105,-0.876 l 109.805,32.481 c 2.146,0.635 3.242,2.178 3.456,3.782 0.086,0.662 0.039,1.347 -0.133,1.996 -0.157,0.592 -0.427,1.144 -0.792,1.596 -0.781,0.966 -2.223,1.474 -4.263,0.928 z m -185.015,3.039 c -0.626,2.712 -1.132,5.412 -1.506,8.068 l -68.487,7.823 c -1.375,0.176 -2.757,0.581 -4.085,1.168 -0.505,-0.369 -0.846,-0.805 -1.05,-1.274 -0.327,-0.747 -0.411,-1.638 -0.32,-2.532 v -0.017 c 0.098,-0.975 0.407,-1.913 0.839,-2.674 0.273,-0.481 0.271,-0.783 0.34,-0.819 z m 503.054,125.713 c -17.699,30.232 -42.5,56.996 -73.815,76.44 l -6.097,-59.033 c 9.433,-7.586 19.096,-16.295 28.279,-26.118 z m 28.058,-74.532 c -4.271,22.258 -11.915,44.305 -22.762,64.98 l -0.645,1.218 -49.201,-8.3 c 12.682,-14.853 24.011,-31.975 31.922,-51.344 5.358,-13.117 9.317,-24.831 12.011,-35.234 z m -27.93,-145.095 c 9.319,12.528 16.546,26.441 21.744,41.265 9.086,25.916 12.004,54.626 9.133,83.58 -0.31,3.11 -0.685,6.223 -1.125,9.334 l -28.14,-28.145 c 2.279,-11.843 2.661,-21.7 1.391,-29.744 -1.093,-6.917 -3.385,-12.584 -6.729,-17.088 -3.192,-4.299 -7.305,-7.504 -12.217,-9.7 z M 2.648,-295.123 c 0.176,-0.191 0.333,-0.396 0.471,-0.612 l 0.947,-1.205 c 18.734,-23.501 44.021,-37.096 71.796,-37.096 0.987,0 1.968,0.019 2.947,0.053 0.169,0.024 0.34,0.038 0.514,0.041 0.126,0.003 0.251,-10e-4 0.377,-0.007 24.767,1.123 47.365,13.1 64.835,33.244 17.739,20.457 30.237,49.308 34.479,83.825 -3.493,1.149 -6.977,2.327 -10.428,3.526 -29.134,10.118 -56.117,21.688 -67.474,28.629 -3.911,2.39 -6.834,6.902 -8.846,12.813 -1.589,-2.805 -4.275,-5.13 -8.183,-6.286 l -111.978,-33.124 0.006,-0.05 10e-4,-0.01 0.011,-0.112 0.003,-0.038 c 3.261,-33.792 14.33,-62.47 30.522,-83.591 m -8.62,-3.498 c -6.945,9.418 -12.95,20.164 -17.819,32.051 l 0.022,-0.093 c 3.368,-14.105 8.507,-26.56 15.024,-37.428 0.97,1.948 1.896,3.773 2.773,5.47 m 81.07,-44.418 c -28.769,0.234 -54.977,13.588 -74.914,36.702 -1.249,-2.477 -2.58,-5.178 -3.976,-8.097 -0.142,-0.551 -0.388,-1.074 -0.733,-1.542 -5.208,-10.993 -11.287,-24.935 -17.533,-41.611 -6.872,-18.347 -13.953,-39.989 -20.318,-64.646 -1.482,-5.746 -0.233,-10.523 2.965,-14.421 4.384,-5.344 12.305,-9.371 22.055,-12.208 10.204,-2.97 22.284,-4.582 34.458,-5.019 27.873,-1 55.733,3.823 61.789,12.359 5.573,7.857 3.157,28.68 0.225,53.925 -1.61,13.875 -3.372,29.04 -4.018,44.558 m 10.322,-19.105 c 3.851,-0.431 7.695,-0.711 11.514,-0.84 3.745,-0.125 7.515,-0.107 11.29,0.055 1.519,10.395 3.198,19.651 4.846,27.651 -9.189,-4.001 -18.912,-6.518 -29.003,-7.407 0.275,-6.508 0.76,-13.032 1.353,-19.459 m -111.206,215.209 105.788,-5.172 c 3.662,0.395 6.729,-0.625 9.076,-2.478 l -0.074,1.124 c -0.682,11.421 0.322,24.663 2.775,37.118 2.48,12.588 6.471,24.499 11.735,33.114 5.155,8.433 11.648,13.904 19.38,14.367 6.851,0.41 15.849,-2.042 26.047,-6.475 -5.115,7.989 -10.738,15.216 -16.781,21.517 l -0.192,0.2 c -4.004,4.154 -8.192,7.902 -12.538,11.193 -13.28,10.053 -28.051,15.808 -43.568,15.808 -23.231,0 -45.14,-13.386 -62.936,-34.845 -18.217,-21.968 -32.072,-52.284 -38.712,-85.471 m -26.436,1.292 17.348,-0.848 c 6.83,35.152 21.486,67.392 40.867,90.762 4.437,5.35 9.126,10.24 14.027,14.603 1.388,5.59 1.584,10.919 1.098,15.768 C 5.493,-34.212 -8.588,-44.635 -20.9,-55.267 -39.17,-71.043 -53.584,-87.316 -63.405,-99.644 Z m 100.549,-13.91 -79.415,3.883 c -0.195,-0.004 -0.391,0.007 -0.59,0.029 l -18.33,0.896 6.505,-26.753 z M 241.76,-317.814 c 14.397,8.347 26.65,18.629 36.834,30.38 l -17.786,55.227 c -6.435,-1.246 -13.769,-1.231 -21.823,-0.097 -0.433,-15.946 -0.361,-31.522 0.143,-46.157 0.485,-14.114 1.387,-27.406 2.632,-39.353 m -37.35,93.207 c -5.478,1.518 -11.075,3.176 -16.693,4.933 -4.665,-35.591 -17.815,-65.489 -36.39,-86.907 -8.318,-9.591 -17.719,-17.488 -27.934,-23.452 -2.211,-9.873 -4.602,-22.293 -6.66,-36.986 0.025,-0.556 -0.055,-1.095 -0.221,-1.596 -0.326,-2.387 -0.646,-4.835 -0.952,-7.339 -2.393,-19.527 -4.097,-42.505 -4.097,-68.346 0,-6.069 2.809,-10.734 7.519,-14.207 6.926,-5.107 17.827,-7.898 30.293,-8.926 12.898,-1.064 27.302,-0.215 40.773,1.934 23.813,3.798 44.422,11.234 47.645,18.869 3.899,9.235 -4.851,33.106 -15.055,60.944 -5.586,15.241 -11.596,31.635 -16.25,47.802 -0.032,0.109 -0.059,0.22 -0.08,0.332 -0.445,1.624 -0.768,3.382 -0.948,5.273 -1.717,18.027 -2.98,39.512 -3.078,60.811 -0.074,16.258 0.531,32.418 2.128,46.861 m 29.244,-101.386 c -0.039,0.169 -0.073,0.343 -0.093,0.52 -1.639,13.642 -2.814,29.514 -3.406,46.732 -0.524,15.197 -0.586,31.399 -0.108,47.976 -5.338,1.04 -10.999,2.334 -16.862,3.823 -1.451,-13.74 -2,-29.054 -1.93,-44.49 0.097,-20.974 1.345,-42.182 3.043,-60.002 0.128,-1.337 0.346,-2.559 0.642,-3.664 0.039,-0.105 0.074,-0.212 0.105,-0.322 l 0.216,-0.746 c 1.052,-3.141 2.776,-5.214 4.757,-6.24 1.104,-0.572 2.317,-0.81 3.529,-0.713 1.247,0.099 2.527,0.568 3.728,1.402 3.444,2.391 6.158,7.585 6.379,15.724 M 148.967,-5.821 c 8.007,-3.942 26.829,-13.875 47.964,-29.705 l 5.943,57.557 c -9.374,5.23 -19.29,9.821 -29.729,13.681 -2.191,-3.637 -4.441,-7.265 -6.691,-10.894 C 160.182,14.706 153.899,4.575 148.967,-5.821 m -9.335,-42.823 c 8.979,-9.583 17.04,-21.053 23.931,-33.917 3.425,-1.871 6.924,-3.891 10.468,-6.037 24.254,-14.683 50.986,-35.291 70.678,-53.182 1.836,-1.67 1.97,-4.516 0.3,-6.352 -1.67,-1.836 -4.516,-1.97 -6.352,-0.3 -19.376,17.602 -45.587,37.826 -69.271,52.163 -3.437,2.08 -6.813,4.036 -10.097,5.838 -0.75,0.182 -1.451,0.556 -2.025,1.099 -13.87,7.43 -25.95,11.967 -33.842,11.497 -4.434,-0.265 -8.59,-4.11 -12.236,-10.075 -4.68,-7.657 -8.282,-18.523 -10.574,-30.156 -2.32,-11.77 -3.272,-24.209 -2.635,-34.867 0.714,-11.933 3.228,-21.318 7.815,-24.121 10.923,-6.675 37.196,-17.915 65.715,-27.819 12.909,-4.484 26.251,-8.683 38.81,-12.05 0.118,-0.027 0.234,-0.057 0.346,-0.093 8.729,-2.332 17.073,-4.261 24.619,-5.598 0.106,-0.016 0.212,-0.034 0.316,-0.057 1.051,-0.183 2.087,-0.358 3.105,-0.518 9.185,-1.45 17.164,-1.348 23.57,0.553 l 0.158,0.055 0.279,0.079 c 0.769,0.242 1.515,0.508 2.237,0.803 3.844,1.57 7.028,3.946 9.444,7.202 2.492,3.356 4.22,7.698 5.074,13.108 1.186,7.511 0.722,16.921 -1.643,28.422 -0.119,0.35 -0.196,0.712 -0.226,1.078 -2.471,11.564 -6.827,25.201 -13.325,41.109 -8.497,20.804 -21.157,38.927 -35.171,54.327 -0.33,0.268 -0.622,0.583 -0.864,0.936 -31.823,34.583 -70.275,55.231 -82.85,61.439 -4.326,-11.067 -6.768,-22.494 -5.754,-34.566 M -40.146,210.369 c 3.374,8.31 8.483,15.252 14.661,20.83 9.191,8.298 20.761,13.567 32.476,15.826 11.744,2.264 23.713,1.505 33.66,-2.256 5.426,-2.052 10.272,-4.997 14.191,-8.829 2.58,0.102 5.154,0.183 7.715,0.25 10.283,6.518 25.13,11.554 45.703,9.416 5.262,-0.545 10.315,-1.583 15.119,-3.053 17.125,-5.245 30.954,-15.995 40.047,-29.808 9.093,-13.811 13.451,-30.675 11.636,-48.141 -0.431,-4.145 -1.213,-8.332 -2.362,-12.526 33.807,-43.334 23.147,-76.673 5.058,-108.502 11.236,-4.245 21.88,-9.309 31.916,-15.075 0.139,-0.07 0.273,-0.147 0.401,-0.23 37.385,-21.583 66.319,-52.985 85.96,-88.6 0.124,-0.189 0.233,-0.389 0.328,-0.598 0.709,-1.294 1.407,-2.592 2.091,-3.895 11.585,-22.087 19.651,-45.68 24.005,-69.475 0.065,-0.243 0.111,-0.491 0.135,-0.738 1.094,-6.091 1.946,-12.195 2.551,-18.289 2.998,-30.23 -0.067,-60.254 -9.59,-87.418 -12.649,-36.079 -36.663,-67.094 -72.955,-86.892 -0.621,-10.593 -4.859,-17.775 -10.187,-21.473 -2.539,-1.764 -5.339,-2.76 -8.161,-2.986 -1.365,-0.108 -2.731,-0.037 -4.072,0.217 3.478,-10.45 7.282,-20.826 10.905,-30.712 10.856,-29.614 20.164,-55.01 14.879,-67.525 -4.451,-10.546 -27.94,-20.015 -54.509,-24.255 -14.187,-2.262 -29.348,-3.157 -42.918,-2.039 -14.001,1.155 -26.489,4.473 -34.869,10.65 -7.026,5.18 -11.214,12.218 -11.214,21.457 0,26.218 1.733,49.57 4.168,69.436 l 0.363,2.893 c -3.413,-0.108 -6.861,-0.102 -10.332,0.014 -3.45,0.116 -6.896,0.343 -10.324,0.684 0.555,-5.223 1.15,-10.346 1.725,-15.302 3.147,-27.106 5.743,-49.464 -1.841,-60.156 -7.734,-10.902 -38.942,-17.217 -69.428,-16.123 -12.859,0.46 -25.695,2.186 -36.638,5.371 -11.4,3.318 -20.874,8.28 -26.491,15.126 -5.017,6.116 -7,13.526 -4.725,22.341 6.467,25.052 13.644,46.994 20.599,65.562 6.079,16.23 11.991,29.898 17.121,40.833 -8.444,12.736 -15.036,27.664 -19.149,44.882 -3.871,16.209 -5.539,34.42 -4.477,54.708 -1.194,-0.611 -2.503,-1.108 -3.92,-1.468 -0.105,-0.108 -0.217,-0.211 -0.336,-0.311 -19.905,-16.671 -45.571,-27.487 -71.858,-30.935 -25.419,-3.335 -51.484,0.212 -73.58,11.997 -8.675,4.626 -16.28,13.806 -22.015,24.738 -2.558,4.874 -4.759,10.118 -6.53,15.472 l -78.273,10.274 c -2.786,0.454 -5.206,2.478 -6.785,5.257 -1.014,1.786 -1.733,3.964 -1.964,6.21 -0.24,2.335 0.037,4.788 1.022,7.037 0.535,1.22 1.26,2.367 2.2,3.385 -1.185,1.614 -2.084,3.437 -2.551,5.366 L -340.837,4.517 c -0.381,1.565 -0.477,3.067 -0.32,4.446 l 0.023,0.171 c 0.252,1.922 0.985,3.631 2.125,5.015 1.241,1.503 2.91,2.57 4.918,3.056 1.176,0.287 2.446,0.369 3.777,0.218 L -96.109,-9.32 c 3.061,-0.393 6.15,-1.906 8.605,-4.07 l 0.292,-0.281 c 2.297,-2.117 4.092,-4.88 4.823,-7.891 l 16.317,-67.107 c 6.136,7.388 13.63,15.788 22.369,24.485 8.114,31.935 25.635,55.152 34.311,66.649 l 0.633,0.839 -0.15,0.077 c -2.493,1.306 -4.614,2.847 -6.371,4.579 -4.231,4.171 -6.334,9.368 -6.606,15.016 l -0.006,0.116 c -0.231,5.385 1.229,11.112 4.102,16.642 2.059,3.966 4.874,7.877 8.329,11.514 0.32,0.999 0.658,2.011 1.002,3.039 2.548,7.615 5.436,16.249 0.858,22.459 -4.558,-2.317 -8.94,-4.804 -13.012,-7.114 -12.43,-7.052 -22.372,-12.689 -29.123,-8.523 -6.496,4.008 -14.593,22.784 -19.413,43.87 -3.996,17.479 -5.998,36.884 -3.251,50.955 4.915,25.192 16.573,42.515 32.254,54.435 m 80.516,24.759 c -0.934,0.445 -1.896,0.855 -2.886,1.229 -8.401,3.178 -18.648,3.792 -28.803,1.835 -10.188,-1.964 -20.218,-6.521 -28.147,-13.678 -1.405,-1.268 -2.742,-2.618 -4.003,-4.051 1.107,0.531 2.224,1.045 3.354,1.54 18.225,8.003 39.281,11.535 60.485,13.125 M 90.931,72.754 C 30.371,75.57 10.788,47.615 5.364,36.259 c 1.068,-0.078 2.265,-0.118 3.605,-0.115 4.998,0.006 9.749,0.231 14.253,0.642 29.609,2.706 48.444,13.625 59.848,25.752 3.178,3.38 5.775,6.836 7.861,10.216 M 15.965,6.418 c 0.134,-0.005 0.268,-0.014 0.4,-0.03 C 17.035,6.335 17.709,6.289 18.391,6.25 28.926,5.632 40.716,6.438 51.716,8.331 54.165,8.748 56.49,7.103 56.907,4.654 57.325,2.205 55.679,-0.12 53.23,-0.538 43.617,-2.193 33.395,-3.057 23.787,-2.932 c 1.66,-3.413 3.462,-7.854 4.756,-13.043 l 0.117,-0.21 c 0.423,-0.803 0.577,-1.675 0.498,-2.515 0.885,-4.366 1.37,-9.182 1.116,-14.301 14.031,9.802 29.463,15.391 45.588,15.391 17.568,0 34.167,-6.421 48.987,-17.639 1.905,-1.441 3.78,-2.964 5.624,-4.562 1.082,25.389 14.737,47.411 28.343,69.346 22.045,35.541 43.945,70.854 5.429,118.756 -0.891,1.119 -1.24,2.644 -0.793,4.118 1.336,4.371 2.221,8.76 2.672,13.11 1.597,15.374 -2.22,30.191 -10.193,42.3 -7.972,12.108 -20.112,21.539 -35.157,26.145 -4.239,1.299 -8.725,2.217 -13.428,2.705 -18.547,1.927 -31.649,-2.632 -40.52,-8.363 -0.271,-0.23 -0.571,-0.427 -0.892,-0.588 -10.7,-7.235 -14.887,-16.016 -14.91,-16.06 -1.107,-2.216 -3.803,-3.113 -6.018,-2.006 -2.215,1.107 -3.113,3.802 -2.006,6.017 0.02,0.037 2.452,5.124 8.136,11.125 -23.711,-1.148 -47.676,-4.25 -67.661,-13.026 -23.007,-10.102 -40.877,-27.954 -47.042,-59.558 -2.49,-12.757 -0.572,-30.799 3.181,-47.224 4.347,-19.014 10.782,-35.409 15.367,-38.239 2.223,-1.372 10.111,3.102 19.973,8.696 14.788,8.39 33.367,18.93 51.704,17.343 5.856,-0.506 11.738,-1.486 17.612,-2.463 17.968,-2.989 35.91,-5.972 54.778,6.443 0.562,0.73 1.347,1.287 2.264,1.562 4.621,3.333 9.299,7.618 14.049,13.082 1.621,1.875 4.458,2.08 6.334,0.458 1.875,-1.622 2.08,-4.458 0.459,-6.334 -5.089,-5.853 -10.086,-10.512 -15.009,-14.201 -0.169,-4.693 -1.563,-11.003 -4.656,-17.856 -0.12,-0.389 -0.29,-0.755 -0.503,-1.089 C 99.205,68.517 95.178,62.295 89.615,56.379 76.944,42.903 56.234,30.79 24.032,27.848 19.277,27.414 14.257,27.178 8.969,27.17 -2.476,27.152 -8.072,29.931 -10.324,34.535 -12.148,30.713 -13.066,26.923 -12.919,23.48 l 0.002,-0.048 c 0.153,-3.431 1.407,-6.573 3.937,-9.068 1.134,-1.117 2.532,-2.126 4.206,-2.995 L -4.76,11.361 C 0.41,8.685 7.695,7.09 15.965,6.418"
             style="fill:#002e14;fill-opacity:1;fill-rule:nonzero;stroke:none"
             id="path196" /></g><g
           id="g198"
           transform="translate(623.2484,538.458)"><path
             d="m 0,0 c -2.816,-10.397 -4.063,-21.672 0.346,-29.02 10.135,-16.891 55.212,-63.356 63.922,-74.75 -17.293,14.414 -37.482,29.272 -56.196,40.601 -3.545,2.147 -7.043,4.166 -10.468,6.037 -6.892,12.864 -14.952,24.335 -23.932,33.917 -1.014,12.072 1.429,23.5 5.755,34.566 C -16.289,9.237 -9.003,5.446 0,0"
             style="fill:#009c75;fill-opacity:1;fill-rule:evenodd;stroke:none"
             id="path200" /></g><g
           id="g202"
           transform="translate(508.9014,189.8847)"><path
             d="m 0,0 c 7.307,0 13.232,-5.924 13.232,-13.232 0,-7.307 -5.925,-13.231 -13.232,-13.231 -7.307,0 -13.232,5.924 -13.232,13.231 C -13.232,-5.924 -7.307,0 0,0"
             style="fill:#009c75;fill-opacity:1;fill-rule:evenodd;stroke:none"
             id="path204" /></g><g
           id="g206"
           transform="translate(479.2001,228.453)"><path
             d="m 0,0 c 5.675,0 10.276,-4.6 10.276,-10.276 0,-5.675 -4.601,-10.276 -10.276,-10.276 -5.675,0 -10.276,4.601 -10.276,10.276 C -10.276,-4.6 -5.675,0 0,0"
             style="fill:#009c75;fill-opacity:1;fill-rule:evenodd;stroke:none"
             id="path208" /></g><g
           id="g210"
           transform="translate(457.9453,185.6623)"><path
             d="m 0,0 c 4.353,0 7.882,-3.529 7.882,-7.882 0,-4.353 -3.529,-7.882 -7.882,-7.882 -4.353,0 -7.882,3.529 -7.882,7.882 C -7.882,-3.529 -4.353,0 0,0"
             style="fill:#009c75;fill-opacity:1;fill-rule:evenodd;stroke:none"
             id="path212" /></g><g
           id="g214"
           transform="translate(503.6919,152.7241)"><path
             d="m 0,0 c 4.898,0 8.868,-3.969 8.868,-8.867 0,-4.898 -3.97,-8.868 -8.868,-8.868 -4.898,0 -8.867,3.97 -8.867,8.868 C -8.867,-3.969 -4.898,0 0,0"
             style="fill:#009c75;fill-opacity:1;fill-rule:evenodd;stroke:none"
             id="path216" /></g><g
           id="g218"
           transform="translate(606.7291,230.1425)"><path
             d="m 0,0 c 5.52,0 9.993,-4.474 9.993,-9.994 0,-5.52 -4.473,-9.993 -9.993,-9.993 -5.52,0 -9.993,4.473 -9.993,9.993 C -9.993,-4.474 -5.52,0 0,0"
             style="fill:#009c75;fill-opacity:1;fill-rule:evenodd;stroke:none"
             id="path220" /></g><g
           id="g222"
           transform="translate(609.6848,178.0614)"><path
             d="m 0,0 c 4.664,0 8.445,-3.781 8.445,-8.445 0,-4.664 -3.781,-8.445 -8.445,-8.445 -4.664,0 -8.445,3.781 -8.445,8.445 C -8.445,-3.781 -4.664,0 0,0"
             style="fill:#009c75;fill-opacity:1;fill-rule:evenodd;stroke:none"
             id="path224" /></g><g
           id="g226"
           transform="translate(648.9774,209.3099)"><path
             d="m 0,0 c 5.064,0 9.169,-4.105 9.169,-9.169 0,-5.063 -4.105,-9.169 -9.169,-9.169 -5.064,0 -9.169,4.106 -9.169,9.169 C -9.169,-4.105 -5.064,0 0,0"
             style="fill:#009c75;fill-opacity:1;fill-rule:evenodd;stroke:none"
             id="path228" /></g><g
           id="g230"
           transform="translate(650.9282,158.3534)"><path
             d="m 0,0 c 3.653,0 6.615,-2.962 6.615,-6.615 0,-3.653 -2.962,-6.615 -6.615,-6.615 -3.653,0 -6.615,2.962 -6.615,6.615 C -6.615,-2.962 -3.653,0 0,0"
             style="fill:#009c75;fill-opacity:1;fill-rule:evenodd;stroke:none"
             id="path232" /></g><g
           id="g234"
           transform="translate(617.8513,406.0902)"><path
             d="m 0,0 c 8.085,0 14.639,-6.554 14.639,-14.639 0,-8.084 -6.554,-14.638 -14.639,-14.638 -8.085,0 -14.638,6.554 -14.638,14.638 C -14.638,-6.554 -8.085,0 0,0"
             style="fill:#009c75;fill-opacity:1;fill-rule:evenodd;stroke:none"
             id="path236" /></g><g
           id="g238"
           transform="translate(666.8348,415.0991)"><path
             d="m 0,0 c 5.286,0 9.571,-4.284 9.571,-9.571 0,-5.286 -4.285,-9.571 -9.571,-9.571 -5.286,0 -9.571,4.285 -9.571,9.571 C -9.571,-4.284 -5.286,0 0,0"
             style="fill:#009c75;fill-opacity:1;fill-rule:evenodd;stroke:none"
             id="path240" /></g><g
           id="g242"
           transform="translate(709.0626,377.9378)"><path
             d="m 0,0 c 7.463,0 13.513,-6.05 13.513,-13.512 0,-7.464 -6.05,-13.513 -13.513,-13.513 -7.463,0 -13.512,6.049 -13.512,13.513 C -13.512,-6.05 -7.463,0 0,0"
             style="fill:#009c75;fill-opacity:1;fill-rule:evenodd;stroke:none"
             id="path244" /></g><g
           id="g246"
           transform="translate(620.5262,445.7849)"><path
             d="m 0,0 c 4.12,0 7.46,-3.34 7.46,-7.46 0,-4.12 -3.34,-7.461 -7.46,-7.461 -4.12,0 -7.46,3.341 -7.46,7.461 C -7.46,-3.34 -4.12,0 0,0"
             style="fill:#009c75;fill-opacity:1;fill-rule:evenodd;stroke:none"
             id="path248" /></g><g
           id="g250"
           transform="translate(638.3353,496.6003)"><path
             d="m 0,0 c -3.77,0 -6.827,-3.057 -6.827,-6.827 0,-3.77 3.057,-6.827 6.827,-6.827 3.77,0 6.827,3.057 6.827,6.827 C 6.827,-3.057 3.77,0 0,0"
             style="fill:#009c75;fill-opacity:1;fill-rule:evenodd;stroke:none"
             id="path252" /></g><g
           id="g254"
           transform="translate(680.9844,480.4129)"><path
             d="m 0,0 c 2.681,0 4.856,-2.174 4.856,-4.856 0,-2.681 -2.175,-4.855 -4.856,-4.855 -2.681,0 -4.856,2.174 -4.856,4.855 C -4.856,-2.174 -2.681,0 0,0"
             style="fill:#009c75;fill-opacity:1;fill-rule:evenodd;stroke:none"
             id="path256" /></g><g
           id="g258"
           transform="translate(622.0775,532.074)"><path
             d="m 0,0 c 2.798,0 5.066,-2.269 5.066,-5.066 0,-2.798 -2.268,-5.067 -5.066,-5.067 -2.797,0 -5.066,2.269 -5.066,5.067 C -5.066,-2.269 -2.797,0 0,0"
             style="fill:#009c75;fill-opacity:1;fill-rule:evenodd;stroke:none"
             id="path260" /></g><g
           id="g262"
           transform="translate(429.5158,486.3286)"><path
             d="m 0,0 c 3.653,0 6.615,-2.962 6.615,-6.615 0,-3.653 -2.962,-6.615 -6.615,-6.615 -3.653,0 -6.615,2.962 -6.615,6.615 C -6.615,-2.962 -3.653,0 0,0"
             style="fill:#009c75;fill-opacity:1;fill-rule:evenodd;stroke:none"
             id="path264" /></g><g
           id="g266"
           transform="translate(413.7524,455.3623)"><path
             d="m 0,0 c 5.053,0 9.15,-4.096 9.15,-9.149 0,-5.054 -4.097,-9.15 -9.15,-9.15 -5.053,0 -9.15,4.096 -9.15,9.15 C -9.15,-4.096 -5.053,0 0,0"
             style="fill:#009c75;fill-opacity:1;fill-rule:evenodd;stroke:none"
             id="path268" /></g><g
           id="g270"
           transform="translate(412.0618,471.127)"><path
             d="M 0,0 C 2.565,0 4.645,-2.08 4.645,-4.645 4.645,-7.21 2.565,-9.29 0,-9.29 c -2.565,0 -4.645,2.08 -4.645,4.645 C -4.645,-2.08 -2.565,0 0,0"
             style="fill:#009c75;fill-opacity:1;fill-rule:evenodd;stroke:none"
             id="path272" /></g><g
           id="g274"
           transform="translate(294.9467,367.2472)"><path
             d="m 0,0 c 5.83,0 10.556,-4.727 10.556,-10.557 0,-5.83 -4.726,-10.556 -10.556,-10.556 -5.83,0 -10.557,4.726 -10.557,10.556 C -10.557,-4.727 -5.83,0 0,0"
             style="fill:#009c75;fill-opacity:1;fill-rule:evenodd;stroke:none"
             id="path276" /></g><g
           id="g278"
           transform="translate(325.3512,379.0702)"><path
             d="m 0,0 c 3.187,0 5.771,-2.584 5.771,-5.771 0,-3.187 -2.584,-5.771 -5.771,-5.771 -3.187,0 -5.771,2.584 -5.771,5.771 C -5.771,-2.584 -3.187,0 0,0"
             style="fill:#009c75;fill-opacity:1;fill-rule:evenodd;stroke:none"
             id="path280" /></g><g
           id="g282"
           transform="translate(345.1978,369.7805)"><path
             d="m 0,0 c 4.043,0 7.319,-3.277 7.319,-7.319 0,-4.042 -3.276,-7.319 -7.319,-7.319 -4.042,0 -7.318,3.277 -7.318,7.319 C -7.318,-3.277 -4.042,0 0,0"
             style="fill:#009c75;fill-opacity:1;fill-rule:evenodd;stroke:none"
             id="path284" /></g><g
           id="g286"
           transform="translate(280.8701,383.8573)"><path
             d="m 0,0 c 3.031,0 5.489,-2.458 5.489,-5.489 0,-3.031 -2.458,-5.489 -5.489,-5.489 -3.031,0 -5.489,2.458 -5.489,5.489 C -5.489,-2.458 -3.031,0 0,0"
             style="fill:#009c75;fill-opacity:1;fill-rule:evenodd;stroke:none"
             id="path288" /></g><g
           id="g290"
           transform="translate(430.919,678.8929)"><path
             d="m 0,0 c 6.763,0 12.246,-5.483 12.246,-12.246 0,-6.763 -5.483,-12.246 -12.246,-12.246 -6.763,0 -12.246,5.483 -12.246,12.246 C -12.246,-5.483 -6.763,0 0,0"
             style="fill:#009c75;fill-opacity:1;fill-rule:evenodd;stroke:none"
             id="path292" /></g><g
           id="g294"
           transform="translate(455.412,704.793)"><path
             d="m 0,0 c 4.12,0 7.46,-3.34 7.46,-7.46 0,-4.121 -3.34,-7.461 -7.46,-7.461 -4.12,0 -7.46,3.34 -7.46,7.461 C -7.46,-3.34 -4.12,0 0,0"
             style="fill:#009c75;fill-opacity:1;fill-rule:evenodd;stroke:none"
             id="path296" /></g><g
           id="g298"
           transform="translate(494.4005,676.3585)"><path
             d="m 0,0 c 3.109,0 5.629,-2.52 5.629,-5.63 0,-3.108 -2.52,-5.629 -5.629,-5.629 -3.109,0 -5.629,2.521 -5.629,5.629 0,3.11 2.52,5.63 5.629,5.63"
             style="fill:#009c75;fill-opacity:1;fill-rule:evenodd;stroke:none"
             id="path300" /></g><g
           id="g302"
           transform="translate(474.4124,583.459)"><path
             d="m 0,0 c -2.799,0 -5.068,-2.269 -5.068,-5.068 0,-2.798 2.269,-5.067 5.068,-5.067 2.798,0 5.068,2.269 5.068,5.067 C 5.068,-2.269 2.798,0 0,0"
             style="fill:#009c75;fill-opacity:1;fill-rule:evenodd;stroke:none"
             id="path304" /></g><g
           id="g306"
           transform="translate(583.3597,568.2562)"><path
             d="m 0,0 c 3.886,0 7.038,-3.151 7.038,-7.038 0,-3.887 -3.152,-7.038 -7.038,-7.038 -3.887,0 -7.038,3.151 -7.038,7.038 C -7.038,-3.151 -3.887,0 0,0"
             style="fill:#009c75;fill-opacity:1;fill-rule:evenodd;stroke:none"
             id="path308" /></g><g
           id="g310"
           transform="translate(585.1893,606.825)"><path
             d="m 0,0 c 3.653,0 6.615,-2.962 6.615,-6.615 0,-3.653 -2.962,-6.615 -6.615,-6.615 -3.653,0 -6.615,2.962 -6.615,6.615 C -6.615,-2.962 -3.653,0 0,0"
             style="fill:#009c75;fill-opacity:1;fill-rule:evenodd;stroke:none"
             id="path312" /></g><g
           id="g314"
           transform="translate(620.442,623.4346)"><path
             d="m 0,0 c 2.911,0 5.271,-2.359 5.271,-5.271 0,-2.911 -2.36,-5.27 -5.271,-5.27 -2.911,0 -5.271,2.359 -5.271,5.27 C -5.271,-2.359 -2.911,0 0,0"
             style="fill:#009c75;fill-opacity:1;fill-rule:evenodd;stroke:none"
             id="path316" /></g><g
           id="g318"
           transform="translate(617.4237,663.9733)"><path
             d="m 0,0 c 3.42,0 6.193,-2.772 6.193,-6.192 0,-3.421 -2.773,-6.193 -6.193,-6.193 -3.421,0 -6.193,2.772 -6.193,6.193 C -6.193,-2.772 -3.421,0 0,0"
             style="fill:#009c75;fill-opacity:1;fill-rule:evenodd;stroke:none"
             id="path320" /></g><g
           id="g322"
           transform="translate(633.1116,645.6743)"><path
             d="m 0,0 c 1.823,0 3.301,-1.477 3.301,-3.301 0,-1.823 -1.478,-3.3 -3.301,-3.3 -1.823,0 -3.3,1.477 -3.3,3.3 C -3.3,-1.477 -1.823,0 0,0"
             style="fill:#009c75;fill-opacity:1;fill-rule:evenodd;stroke:none"
             id="path324" /></g><g
           id="g326"
           transform="translate(494.0471,785.8716)"><path
             d="m 0,0 c 3.226,0 5.841,-2.615 5.841,-5.842 0,-3.226 -2.615,-5.841 -5.841,-5.841 -3.227,0 -5.842,2.615 -5.842,5.841 C -5.842,-2.615 -3.227,0 0,0"
             style="fill:#c1f066;fill-opacity:1;fill-rule:evenodd;stroke:none"
             id="path328" /></g><g
           id="g330"
           transform="translate(464.9792,774.4695)"><path
             d="m 0,0 c 2.643,0 4.786,-2.142 4.786,-4.785 0,-2.643 -2.143,-4.786 -4.786,-4.786 -2.643,0 -4.786,2.143 -4.786,4.786 C -4.786,-2.142 -2.643,0 0,0"
             style="fill:#c1f066;fill-opacity:1;fill-rule:evenodd;stroke:none"
             id="path332" /></g><g
           id="g334"
           transform="translate(476.3812,785.1678)"><path
             d="m 0,0 c 1.709,0 3.096,-1.387 3.096,-3.096 0,-1.71 -1.387,-3.096 -3.096,-3.096 -1.71,0 -3.096,1.386 -3.096,3.096 C -3.096,-1.387 -1.71,0 0,0"
             style="fill:#c1f066;fill-opacity:1;fill-rule:evenodd;stroke:none"
             id="path336" /></g><g
           id="g338"
           transform="translate(443.3885,776.6581)"><path
             d="m 0,0 c 2.665,0 4.824,-2.159 4.824,-4.824 0,-2.665 -2.159,-4.824 -4.824,-4.824 -2.665,0 -4.824,2.159 -4.824,4.824 C -4.824,-2.159 -2.665,0 0,0"
             style="fill:#c1f066;fill-opacity:1;fill-rule:evenodd;stroke:none"
             id="path340" /></g><g
           id="g342"
           transform="translate(551.5342,799.8655)"><path
             d="m 0,0 c 4.368,0 7.909,-3.542 7.909,-7.91 0,-4.368 -3.541,-7.91 -7.909,-7.91 -4.368,0 -7.91,3.542 -7.91,7.91 C -7.91,-3.542 -4.368,0 0,0"
             style="fill:#c1f066;fill-opacity:1;fill-rule:evenodd;stroke:none"
             id="path344" /></g><g
           id="g346"
           transform="translate(536.9745,778.4137)"><path
             d="m 0,0 c 2.681,0 4.856,-2.174 4.856,-4.856 0,-2.681 -2.175,-4.855 -4.856,-4.855 -2.681,0 -4.856,2.174 -4.856,4.855 C -4.856,-2.174 -2.681,0 0,0"
             style="fill:#c1f066;fill-opacity:1;fill-rule:evenodd;stroke:none"
             id="path348" /></g><g
           id="g350"
           transform="translate(599.2621,784.4671)"><path
             d="m 0,0 c 2.877,0 5.208,-2.331 5.208,-5.208 0,-2.877 -2.331,-5.208 -5.208,-5.208 -2.876,0 -5.208,2.331 -5.208,5.208 C -5.208,-2.331 -2.876,0 0,0"
             style="fill:#c1f066;fill-opacity:1;fill-rule:evenodd;stroke:none"
             id="path352" /></g><g
           id="g354"
           transform="translate(580.1179,783.0588)"><path
             d="m 0,0 c 2.487,0 4.503,-2.016 4.503,-4.503 0,-2.488 -2.016,-4.504 -4.503,-4.504 -2.487,0 -4.503,2.016 -4.503,4.504 C -4.503,-2.016 -2.487,0 0,0"
             style="fill:#c1f066;fill-opacity:1;fill-rule:evenodd;stroke:none"
             id="path356" /></g><g
           id="g358"
           transform="translate(609.4666,764.7598)"><path
             d="m 0,0 c 3.77,0 6.826,-3.055 6.826,-6.826 0,-3.771 -3.056,-6.826 -6.826,-6.826 -3.77,0 -6.826,3.055 -6.826,6.826 C -6.826,-3.055 -3.77,0 0,0"
             style="fill:#c1f066;fill-opacity:1;fill-rule:evenodd;stroke:none"
             id="path360" /></g><g
           id="g362"
           transform="translate(571.4318,751.4001)"><path
             d="M 0,0 C 4.41,0.272 8.285,-4.386 8.657,-10.405 9.028,-16.423 5.755,-21.523 1.345,-21.795 -3.064,-22.067 -6.94,-17.409 -7.312,-11.39 -7.683,-5.371 -4.409,-0.272 0,0"
             style="fill:#ffffff;fill-opacity:1;fill-rule:evenodd;stroke:none"
             id="path364" /></g><g
           id="g366"
           transform="translate(561.0417,719.1715)"><path
             d="M 0,0 C 2.205,0.137 4.143,-2.193 4.328,-5.202 4.514,-8.211 2.877,-10.761 0.673,-10.897 -1.532,-11.033 -3.47,-8.704 -3.656,-5.695 -3.841,-2.685 -2.205,-0.136 0,0"
             style="fill:#ffffff;fill-opacity:1;fill-rule:evenodd;stroke:none"
             id="path368" /></g><g
           id="g370"
           transform="translate(250.813,510.0722)"><path
             d="m 0,0 c 21.145,0 41.5,-17.141 45.465,-38.287 3.965,-21.145 -9.962,-38.286 -31.108,-38.286 -21.145,0 -41.5,17.141 -45.465,38.286 C -35.072,-17.141 -21.145,0 0,0"
             style="fill:#d4e6ff;fill-opacity:1;fill-rule:evenodd;stroke:none"
             id="path372" /></g><g
           id="g374"
           transform="translate(250.8126,510.0722)"><path
             d="m 0,0 c 21.145,0 41.501,-17.141 45.466,-38.287 0.655,-3.491 0.818,-6.871 0.546,-10.084 -21.486,-7.32 -43.83,-11.225 -65.038,-13.012 -6.067,6.422 -10.454,14.421 -12.081,23.096 C -35.071,-17.141 -21.145,0 0,0"
             style="fill:#ffffff;fill-opacity:1;fill-rule:evenodd;stroke:none"
             id="path376" /></g></g></g></g></svg>
